<?xml version="1.0" encoding="utf-8"?>
<svg viewBox="252.611 302.505 40 40" xmlns="http://www.w3.org/2000/svg">
  <path d="M 272.611 302.505 C 261.583 302.505 252.611 311.477 252.611 322.505 C 252.611 333.533 261.583 342.505 272.611 342.505 C 283.639 342.505 292.611 333.533 292.611 322.505 C 292.611 311.477 283.639 302.505 272.611 302.505 Z M 272.611 305.505 C 282.017 305.505 289.611 313.099 289.611 322.505 C 289.611 330.171 284.568 336.628 277.611 338.757 L 277.611 333.642 C 277.611 331.732 276.51 330.094 274.919 329.279 C 281.586 328.003 284.709 321.862 281.048 317.226 C 281.492 315.861 281.987 313.466 280.81 311.581 C 278.54 311.581 277.075 313.137 276.376 314.105 C 275.181 313.712 273.903 313.509 272.611 313.505 C 271.318 313.506 270.038 313.708 268.841 314.099 C 268.14 313.131 266.677 311.581 264.411 311.581 C 263.06 313.744 263.896 316.07 264.343 317.019 C 260.425 321.647 263.497 327.982 270.292 329.285 C 268.986 329.958 268.008 331.179 267.708 332.662 L 266.394 332.662 C 265.097 332.662 264.593 332.135 263.892 331.246 C 263.2 330.357 262.456 329.759 261.562 329.511 C 261.08 329.46 260.755 329.827 261.175 330.152 C 262.594 331.118 262.692 332.699 263.261 333.734 C 263.779 334.666 264.84 335.505 266.04 335.505 L 267.611 335.505 L 267.611 338.757 C 260.654 336.628 255.611 330.171 255.611 322.505 C 255.611 313.099 263.204 305.505 272.611 305.505 Z" style="fill: rgb(255, 255, 255);" transform="matrix(0.9999999999999999, 0, 0, 0.9999999999999999, 1.4210854715202004e-14, 0)"/>
</svg>