<?xml version="1.0" encoding="utf-8"?>
<svg viewBox="265.064 302.443 40.609 40.609" xmlns="http://www.w3.org/2000/svg">
  <path d="M 301.161 302.443 L 269.576 302.443 C 267.083 302.443 265.064 304.462 265.064 306.955 L 265.064 338.54 C 265.064 341.033 267.083 343.052 269.576 343.052 L 301.161 343.052 C 303.654 343.052 305.673 341.033 305.673 338.54 L 305.673 306.955 C 305.673 304.462 303.654 302.443 301.161 302.443 Z M 278.6 334.028 L 272.908 334.028 L 272.908 318.235 L 278.6 318.235 L 278.6 334.028 Z M 275.654 315.341 C 273.915 315.341 272.753 314.181 272.753 312.634 C 272.753 311.086 273.912 309.926 275.846 309.926 C 277.585 309.926 278.747 311.086 278.747 312.634 C 278.747 314.181 277.587 315.341 275.654 315.341 Z M 298.905 334.028 L 293.396 334.028 L 293.396 325.396 C 293.396 323.009 291.927 322.459 291.376 322.459 C 290.826 322.459 288.989 322.826 288.989 325.396 C 288.989 325.764 288.989 334.028 288.989 334.028 L 283.297 334.028 L 283.297 318.235 L 288.989 318.235 L 288.989 320.44 C 289.723 319.154 291.191 318.235 293.946 318.235 C 296.701 318.235 298.905 320.44 298.905 325.396 L 298.905 334.028 Z" style="fill: rgb(255, 255, 255);" transform="matrix(0.9999999999999999, 0, 0, 0.9999999999999999, 1.4210854715202004e-14, 0)"/>
</svg>